<mxfile host="app.diagrams.net" modified="2024-02-19T02:18:36.920Z" agent="Mozilla/5.0 (Windows NT 10.0; Win64; x64; rv:122.0) Gecko/20100101 Firefox/122.0" etag="zzo5ProhchodKh0_ZFW7" version="23.1.5" type="device">
  <diagram name="erd" id="qu68V_Zikp43uzYfEWQi">
    <mxGraphModel dx="2117" dy="530" grid="1" gridSize="10" guides="1" tooltips="1" connect="1" arrows="1" fold="1" page="1" pageScale="1" pageWidth="827" pageHeight="1169" math="0" shadow="0">
      <root>
        <mxCell id="0" />
        <mxCell id="1" parent="0" />
        <mxCell id="XoZBVnsjFnfJr2ByRYeR-1" value="user" style="rounded=0;whiteSpace=wrap;html=1;" parent="1" vertex="1">
          <mxGeometry x="80" y="175" width="110" height="40" as="geometry" />
        </mxCell>
        <mxCell id="XoZBVnsjFnfJr2ByRYeR-2" value="id" style="ellipse;whiteSpace=wrap;html=1;" parent="1" vertex="1">
          <mxGeometry y="230" width="80" height="30" as="geometry" />
        </mxCell>
        <mxCell id="XoZBVnsjFnfJr2ByRYeR-3" value="name" style="ellipse;whiteSpace=wrap;html=1;" parent="1" vertex="1">
          <mxGeometry x="-40" y="190" width="80" height="30" as="geometry" />
        </mxCell>
        <mxCell id="XoZBVnsjFnfJr2ByRYeR-4" value="userrname" style="ellipse;whiteSpace=wrap;html=1;" parent="1" vertex="1">
          <mxGeometry x="-100" y="150" width="90" height="35" as="geometry" />
        </mxCell>
        <mxCell id="XoZBVnsjFnfJr2ByRYeR-6" value="password" style="ellipse;whiteSpace=wrap;html=1;" parent="1" vertex="1">
          <mxGeometry x="-50" y="105" width="90" height="35" as="geometry" />
        </mxCell>
        <mxCell id="XoZBVnsjFnfJr2ByRYeR-7" value="created_at" style="ellipse;whiteSpace=wrap;html=1;" parent="1" vertex="1">
          <mxGeometry x="-5" y="62.5" width="90" height="35" as="geometry" />
        </mxCell>
        <mxCell id="XoZBVnsjFnfJr2ByRYeR-8" value="deleted_at" style="ellipse;whiteSpace=wrap;html=1;" parent="1" vertex="1">
          <mxGeometry x="80" y="90" width="90" height="35" as="geometry" />
        </mxCell>
        <mxCell id="XoZBVnsjFnfJr2ByRYeR-9" value="updated_at" style="ellipse;whiteSpace=wrap;html=1;" parent="1" vertex="1">
          <mxGeometry x="170" y="62.5" width="90" height="35" as="geometry" />
        </mxCell>
        <mxCell id="XoZBVnsjFnfJr2ByRYeR-10" value="" style="endArrow=none;html=1;rounded=0;" parent="1" source="XoZBVnsjFnfJr2ByRYeR-7" target="XoZBVnsjFnfJr2ByRYeR-1" edge="1">
          <mxGeometry width="50" height="50" relative="1" as="geometry">
            <mxPoint x="130" y="310" as="sourcePoint" />
            <mxPoint x="180" y="260" as="targetPoint" />
          </mxGeometry>
        </mxCell>
        <mxCell id="XoZBVnsjFnfJr2ByRYeR-11" value="" style="endArrow=none;html=1;rounded=0;" parent="1" source="XoZBVnsjFnfJr2ByRYeR-2" target="XoZBVnsjFnfJr2ByRYeR-1" edge="1">
          <mxGeometry width="50" height="50" relative="1" as="geometry">
            <mxPoint x="79" y="224" as="sourcePoint" />
            <mxPoint x="110" y="216" as="targetPoint" />
          </mxGeometry>
        </mxCell>
        <mxCell id="XoZBVnsjFnfJr2ByRYeR-12" value="" style="endArrow=none;html=1;rounded=0;" parent="1" source="XoZBVnsjFnfJr2ByRYeR-3" target="XoZBVnsjFnfJr2ByRYeR-1" edge="1">
          <mxGeometry width="50" height="50" relative="1" as="geometry">
            <mxPoint x="71" y="174" as="sourcePoint" />
            <mxPoint x="110" y="186" as="targetPoint" />
          </mxGeometry>
        </mxCell>
        <mxCell id="XoZBVnsjFnfJr2ByRYeR-13" value="" style="endArrow=none;html=1;rounded=0;" parent="1" source="XoZBVnsjFnfJr2ByRYeR-4" target="XoZBVnsjFnfJr2ByRYeR-1" edge="1">
          <mxGeometry width="50" height="50" relative="1" as="geometry">
            <mxPoint x="84" y="119" as="sourcePoint" />
            <mxPoint x="146" y="183" as="targetPoint" />
          </mxGeometry>
        </mxCell>
        <mxCell id="XoZBVnsjFnfJr2ByRYeR-14" value="" style="endArrow=none;html=1;rounded=0;" parent="1" source="XoZBVnsjFnfJr2ByRYeR-6" target="XoZBVnsjFnfJr2ByRYeR-1" edge="1">
          <mxGeometry width="50" height="50" relative="1" as="geometry">
            <mxPoint x="165" y="75" as="sourcePoint" />
            <mxPoint x="165" y="183" as="targetPoint" />
          </mxGeometry>
        </mxCell>
        <mxCell id="XoZBVnsjFnfJr2ByRYeR-15" value="" style="endArrow=none;html=1;rounded=0;" parent="1" source="XoZBVnsjFnfJr2ByRYeR-8" target="XoZBVnsjFnfJr2ByRYeR-1" edge="1">
          <mxGeometry width="50" height="50" relative="1" as="geometry">
            <mxPoint x="248" y="124" as="sourcePoint" />
            <mxPoint x="186" y="183" as="targetPoint" />
          </mxGeometry>
        </mxCell>
        <mxCell id="XoZBVnsjFnfJr2ByRYeR-16" value="" style="endArrow=none;html=1;rounded=0;" parent="1" source="XoZBVnsjFnfJr2ByRYeR-9" target="XoZBVnsjFnfJr2ByRYeR-1" edge="1">
          <mxGeometry width="50" height="50" relative="1" as="geometry">
            <mxPoint x="258" y="134" as="sourcePoint" />
            <mxPoint x="196" y="193" as="targetPoint" />
          </mxGeometry>
        </mxCell>
        <mxCell id="XoZBVnsjFnfJr2ByRYeR-18" value="membuat" style="rhombus;whiteSpace=wrap;html=1;" parent="1" vertex="1">
          <mxGeometry x="92.5" y="280" width="85" height="80" as="geometry" />
        </mxCell>
        <mxCell id="XoZBVnsjFnfJr2ByRYeR-19" value="category" style="rounded=0;whiteSpace=wrap;html=1;" parent="1" vertex="1">
          <mxGeometry x="80" y="430" width="110" height="40" as="geometry" />
        </mxCell>
        <mxCell id="XoZBVnsjFnfJr2ByRYeR-26" value="membuat" style="rhombus;whiteSpace=wrap;html=1;" parent="1" vertex="1">
          <mxGeometry x="360" y="160" width="85" height="80" as="geometry" />
        </mxCell>
        <mxCell id="XoZBVnsjFnfJr2ByRYeR-27" value="custom_page" style="rounded=0;whiteSpace=wrap;html=1;" parent="1" vertex="1">
          <mxGeometry x="580" y="180" width="110" height="40" as="geometry" />
        </mxCell>
        <mxCell id="XoZBVnsjFnfJr2ByRYeR-30" value="&lt;div&gt;news&lt;/div&gt;" style="rounded=0;whiteSpace=wrap;html=1;" parent="1" vertex="1">
          <mxGeometry x="580" y="432.5" width="110" height="40" as="geometry" />
        </mxCell>
        <mxCell id="XoZBVnsjFnfJr2ByRYeR-32" value="memiliki" style="rhombus;whiteSpace=wrap;html=1;" parent="1" vertex="1">
          <mxGeometry x="350" y="410" width="85" height="80" as="geometry" />
        </mxCell>
        <mxCell id="XoZBVnsjFnfJr2ByRYeR-35" value="membuat" style="rhombus;whiteSpace=wrap;html=1;" parent="1" vertex="1">
          <mxGeometry x="350" y="282.5" width="85" height="80" as="geometry" />
        </mxCell>
        <mxCell id="XoZBVnsjFnfJr2ByRYeR-37" value="" style="endArrow=none;html=1;rounded=0;" parent="1" source="XoZBVnsjFnfJr2ByRYeR-1" target="XoZBVnsjFnfJr2ByRYeR-26" edge="1">
          <mxGeometry width="50" height="50" relative="1" as="geometry">
            <mxPoint x="290" y="320" as="sourcePoint" />
            <mxPoint x="340" y="270" as="targetPoint" />
          </mxGeometry>
        </mxCell>
        <mxCell id="XoZBVnsjFnfJr2ByRYeR-38" value="" style="endArrow=none;html=1;rounded=0;" parent="1" source="XoZBVnsjFnfJr2ByRYeR-27" target="XoZBVnsjFnfJr2ByRYeR-26" edge="1">
          <mxGeometry width="50" height="50" relative="1" as="geometry">
            <mxPoint x="320" y="210" as="sourcePoint" />
            <mxPoint x="485" y="200" as="targetPoint" />
          </mxGeometry>
        </mxCell>
        <mxCell id="XoZBVnsjFnfJr2ByRYeR-39" value="" style="endArrow=none;html=1;rounded=0;" parent="1" source="XoZBVnsjFnfJr2ByRYeR-35" target="XoZBVnsjFnfJr2ByRYeR-1" edge="1">
          <mxGeometry width="50" height="50" relative="1" as="geometry">
            <mxPoint x="470" y="205" as="sourcePoint" />
            <mxPoint x="375" y="205" as="targetPoint" />
          </mxGeometry>
        </mxCell>
        <mxCell id="XoZBVnsjFnfJr2ByRYeR-40" value="" style="endArrow=none;html=1;rounded=0;" parent="1" source="XoZBVnsjFnfJr2ByRYeR-35" target="XoZBVnsjFnfJr2ByRYeR-30" edge="1">
          <mxGeometry width="50" height="50" relative="1" as="geometry">
            <mxPoint x="308" y="313" as="sourcePoint" />
            <mxPoint x="175" y="225" as="targetPoint" />
          </mxGeometry>
        </mxCell>
        <mxCell id="XoZBVnsjFnfJr2ByRYeR-41" value="" style="endArrow=none;html=1;rounded=0;" parent="1" source="XoZBVnsjFnfJr2ByRYeR-1" target="XoZBVnsjFnfJr2ByRYeR-18" edge="1">
          <mxGeometry width="50" height="50" relative="1" as="geometry">
            <mxPoint x="357" y="347" as="sourcePoint" />
            <mxPoint x="495" y="440" as="targetPoint" />
          </mxGeometry>
        </mxCell>
        <mxCell id="XoZBVnsjFnfJr2ByRYeR-42" value="" style="endArrow=none;html=1;rounded=0;" parent="1" source="XoZBVnsjFnfJr2ByRYeR-19" target="XoZBVnsjFnfJr2ByRYeR-18" edge="1">
          <mxGeometry width="50" height="50" relative="1" as="geometry">
            <mxPoint x="145" y="225" as="sourcePoint" />
            <mxPoint x="145" y="290" as="targetPoint" />
          </mxGeometry>
        </mxCell>
        <mxCell id="XoZBVnsjFnfJr2ByRYeR-43" value="" style="endArrow=none;html=1;rounded=0;" parent="1" source="XoZBVnsjFnfJr2ByRYeR-19" target="XoZBVnsjFnfJr2ByRYeR-32" edge="1">
          <mxGeometry width="50" height="50" relative="1" as="geometry">
            <mxPoint x="145" y="440" as="sourcePoint" />
            <mxPoint x="145" y="370" as="targetPoint" />
          </mxGeometry>
        </mxCell>
        <mxCell id="XoZBVnsjFnfJr2ByRYeR-44" value="" style="endArrow=none;html=1;rounded=0;" parent="1" source="XoZBVnsjFnfJr2ByRYeR-30" target="XoZBVnsjFnfJr2ByRYeR-32" edge="1">
          <mxGeometry width="50" height="50" relative="1" as="geometry">
            <mxPoint x="300" y="462.5" as="sourcePoint" />
            <mxPoint x="465" y="452.5" as="targetPoint" />
          </mxGeometry>
        </mxCell>
        <mxCell id="XoZBVnsjFnfJr2ByRYeR-45" value="created_at" style="ellipse;whiteSpace=wrap;html=1;" parent="1" vertex="1">
          <mxGeometry x="480" y="240" width="90" height="35" as="geometry" />
        </mxCell>
        <mxCell id="XoZBVnsjFnfJr2ByRYeR-46" value="created_at" style="ellipse;whiteSpace=wrap;html=1;" parent="1" vertex="1">
          <mxGeometry y="500" width="90" height="35" as="geometry" />
        </mxCell>
        <mxCell id="XoZBVnsjFnfJr2ByRYeR-47" value="created_at" style="ellipse;whiteSpace=wrap;html=1;" parent="1" vertex="1">
          <mxGeometry x="810" y="482.5" width="90" height="35" as="geometry" />
        </mxCell>
        <mxCell id="XoZBVnsjFnfJr2ByRYeR-48" value="deleted_at" style="ellipse;whiteSpace=wrap;html=1;" parent="1" vertex="1">
          <mxGeometry x="170" y="500" width="90" height="35" as="geometry" />
        </mxCell>
        <mxCell id="XoZBVnsjFnfJr2ByRYeR-49" value="updated_at" style="ellipse;whiteSpace=wrap;html=1;" parent="1" vertex="1">
          <mxGeometry x="90" y="530" width="90" height="35" as="geometry" />
        </mxCell>
        <mxCell id="XoZBVnsjFnfJr2ByRYeR-50" value="deleted_at" style="ellipse;whiteSpace=wrap;html=1;" parent="1" vertex="1">
          <mxGeometry x="785" y="382.5" width="90" height="35" as="geometry" />
        </mxCell>
        <mxCell id="XoZBVnsjFnfJr2ByRYeR-51" value="updated_at" style="ellipse;whiteSpace=wrap;html=1;" parent="1" vertex="1">
          <mxGeometry x="760" y="425" width="90" height="35" as="geometry" />
        </mxCell>
        <mxCell id="XoZBVnsjFnfJr2ByRYeR-52" value="deleted_at" style="ellipse;whiteSpace=wrap;html=1;" parent="1" vertex="1">
          <mxGeometry x="700" y="240" width="90" height="35" as="geometry" />
        </mxCell>
        <mxCell id="XoZBVnsjFnfJr2ByRYeR-53" value="updated_at" style="ellipse;whiteSpace=wrap;html=1;" parent="1" vertex="1">
          <mxGeometry x="590" y="240" width="90" height="35" as="geometry" />
        </mxCell>
        <mxCell id="XoZBVnsjFnfJr2ByRYeR-54" value="name_category" style="ellipse;whiteSpace=wrap;html=1;" parent="1" vertex="1">
          <mxGeometry x="-55" y="460" width="90" height="40" as="geometry" />
        </mxCell>
        <mxCell id="XoZBVnsjFnfJr2ByRYeR-55" value="id" style="ellipse;whiteSpace=wrap;html=1;" parent="1" vertex="1">
          <mxGeometry x="12.5" y="372.5" width="80" height="30" as="geometry" />
        </mxCell>
        <mxCell id="XoZBVnsjFnfJr2ByRYeR-57" value="user_id" style="ellipse;whiteSpace=wrap;html=1;" parent="1" vertex="1">
          <mxGeometry x="-50" y="410" width="80" height="30" as="geometry" />
        </mxCell>
        <mxCell id="XoZBVnsjFnfJr2ByRYeR-58" value="" style="endArrow=none;html=1;rounded=0;" parent="1" source="XoZBVnsjFnfJr2ByRYeR-19" target="XoZBVnsjFnfJr2ByRYeR-55" edge="1">
          <mxGeometry width="50" height="50" relative="1" as="geometry">
            <mxPoint x="145" y="440" as="sourcePoint" />
            <mxPoint x="145" y="370" as="targetPoint" />
          </mxGeometry>
        </mxCell>
        <mxCell id="XoZBVnsjFnfJr2ByRYeR-59" value="" style="endArrow=none;html=1;rounded=0;" parent="1" source="XoZBVnsjFnfJr2ByRYeR-19" target="XoZBVnsjFnfJr2ByRYeR-57" edge="1">
          <mxGeometry width="50" height="50" relative="1" as="geometry">
            <mxPoint x="119" y="440" as="sourcePoint" />
            <mxPoint x="80" y="411" as="targetPoint" />
          </mxGeometry>
        </mxCell>
        <mxCell id="XoZBVnsjFnfJr2ByRYeR-60" value="" style="endArrow=none;html=1;rounded=0;" parent="1" source="XoZBVnsjFnfJr2ByRYeR-19" target="XoZBVnsjFnfJr2ByRYeR-54" edge="1">
          <mxGeometry width="50" height="50" relative="1" as="geometry">
            <mxPoint x="90" y="451" as="sourcePoint" />
            <mxPoint x="36" y="441" as="targetPoint" />
          </mxGeometry>
        </mxCell>
        <mxCell id="XoZBVnsjFnfJr2ByRYeR-61" value="" style="endArrow=none;html=1;rounded=0;" parent="1" source="XoZBVnsjFnfJr2ByRYeR-19" target="XoZBVnsjFnfJr2ByRYeR-46" edge="1">
          <mxGeometry width="50" height="50" relative="1" as="geometry">
            <mxPoint x="90" y="471" as="sourcePoint" />
            <mxPoint x="41" y="482" as="targetPoint" />
          </mxGeometry>
        </mxCell>
        <mxCell id="XoZBVnsjFnfJr2ByRYeR-62" value="" style="endArrow=none;html=1;rounded=0;" parent="1" source="XoZBVnsjFnfJr2ByRYeR-19" target="XoZBVnsjFnfJr2ByRYeR-49" edge="1">
          <mxGeometry width="50" height="50" relative="1" as="geometry">
            <mxPoint x="124" y="480" as="sourcePoint" />
            <mxPoint x="80" y="521" as="targetPoint" />
          </mxGeometry>
        </mxCell>
        <mxCell id="XoZBVnsjFnfJr2ByRYeR-63" value="" style="endArrow=none;html=1;rounded=0;" parent="1" source="XoZBVnsjFnfJr2ByRYeR-19" target="XoZBVnsjFnfJr2ByRYeR-48" edge="1">
          <mxGeometry width="50" height="50" relative="1" as="geometry">
            <mxPoint x="145" y="480" as="sourcePoint" />
            <mxPoint x="145" y="560" as="targetPoint" />
          </mxGeometry>
        </mxCell>
        <mxCell id="XoZBVnsjFnfJr2ByRYeR-64" value="id" style="ellipse;whiteSpace=wrap;html=1;" parent="1" vertex="1">
          <mxGeometry x="525" y="352.5" width="80" height="30" as="geometry" />
        </mxCell>
        <mxCell id="XoZBVnsjFnfJr2ByRYeR-65" value="user_id" style="ellipse;whiteSpace=wrap;html=1;" parent="1" vertex="1">
          <mxGeometry x="595" y="330" width="80" height="30" as="geometry" />
        </mxCell>
        <mxCell id="XoZBVnsjFnfJr2ByRYeR-67" value="category_id" style="ellipse;whiteSpace=wrap;html=1;" parent="1" vertex="1">
          <mxGeometry x="680" y="307.5" width="80" height="30" as="geometry" />
        </mxCell>
        <mxCell id="XoZBVnsjFnfJr2ByRYeR-68" value="news_content" style="ellipse;whiteSpace=wrap;html=1;" parent="1" vertex="1">
          <mxGeometry x="725" y="345" width="90" height="37.5" as="geometry" />
        </mxCell>
        <mxCell id="XoZBVnsjFnfJr2ByRYeR-69" value="" style="endArrow=none;html=1;rounded=0;" parent="1" source="XoZBVnsjFnfJr2ByRYeR-64" target="XoZBVnsjFnfJr2ByRYeR-30" edge="1">
          <mxGeometry width="50" height="50" relative="1" as="geometry">
            <mxPoint x="457" y="349.5" as="sourcePoint" />
            <mxPoint x="595" y="442.5" as="targetPoint" />
          </mxGeometry>
        </mxCell>
        <mxCell id="XoZBVnsjFnfJr2ByRYeR-70" value="" style="endArrow=none;html=1;rounded=0;" parent="1" source="XoZBVnsjFnfJr2ByRYeR-65" target="XoZBVnsjFnfJr2ByRYeR-30" edge="1">
          <mxGeometry width="50" height="50" relative="1" as="geometry">
            <mxPoint x="608" y="392.5" as="sourcePoint" />
            <mxPoint x="620" y="442.5" as="targetPoint" />
          </mxGeometry>
        </mxCell>
        <mxCell id="XoZBVnsjFnfJr2ByRYeR-71" value="" style="endArrow=none;html=1;rounded=0;" parent="1" source="XoZBVnsjFnfJr2ByRYeR-67" target="XoZBVnsjFnfJr2ByRYeR-30" edge="1">
          <mxGeometry width="50" height="50" relative="1" as="geometry">
            <mxPoint x="688" y="384.5" as="sourcePoint" />
            <mxPoint x="641" y="442.5" as="targetPoint" />
          </mxGeometry>
        </mxCell>
        <mxCell id="XoZBVnsjFnfJr2ByRYeR-72" value="" style="endArrow=none;html=1;rounded=0;" parent="1" source="XoZBVnsjFnfJr2ByRYeR-68" target="XoZBVnsjFnfJr2ByRYeR-30" edge="1">
          <mxGeometry width="50" height="50" relative="1" as="geometry">
            <mxPoint x="729" y="418.5" as="sourcePoint" />
            <mxPoint x="672" y="442.5" as="targetPoint" />
          </mxGeometry>
        </mxCell>
        <mxCell id="XoZBVnsjFnfJr2ByRYeR-73" value="" style="endArrow=none;html=1;rounded=0;" parent="1" source="XoZBVnsjFnfJr2ByRYeR-50" target="XoZBVnsjFnfJr2ByRYeR-30" edge="1">
          <mxGeometry width="50" height="50" relative="1" as="geometry">
            <mxPoint x="710" y="462.5" as="sourcePoint" />
            <mxPoint x="680" y="462.5" as="targetPoint" />
          </mxGeometry>
        </mxCell>
        <mxCell id="XoZBVnsjFnfJr2ByRYeR-74" value="" style="endArrow=none;html=1;rounded=0;" parent="1" source="XoZBVnsjFnfJr2ByRYeR-51" target="XoZBVnsjFnfJr2ByRYeR-30" edge="1">
          <mxGeometry width="50" height="50" relative="1" as="geometry">
            <mxPoint x="728" y="516.5" as="sourcePoint" />
            <mxPoint x="664" y="482.5" as="targetPoint" />
          </mxGeometry>
        </mxCell>
        <mxCell id="XoZBVnsjFnfJr2ByRYeR-75" value="" style="endArrow=none;html=1;rounded=0;" parent="1" source="XoZBVnsjFnfJr2ByRYeR-47" target="XoZBVnsjFnfJr2ByRYeR-30" edge="1">
          <mxGeometry width="50" height="50" relative="1" as="geometry">
            <mxPoint x="632" y="512.5" as="sourcePoint" />
            <mxPoint x="628" y="482.5" as="targetPoint" />
          </mxGeometry>
        </mxCell>
        <mxCell id="XoZBVnsjFnfJr2ByRYeR-76" value="" style="endArrow=none;html=1;rounded=0;" parent="1" source="XoZBVnsjFnfJr2ByRYeR-27" target="XoZBVnsjFnfJr2ByRYeR-45" edge="1">
          <mxGeometry width="50" height="50" relative="1" as="geometry">
            <mxPoint x="590" y="210" as="sourcePoint" />
            <mxPoint x="495" y="210" as="targetPoint" />
          </mxGeometry>
        </mxCell>
        <mxCell id="XoZBVnsjFnfJr2ByRYeR-77" value="" style="endArrow=none;html=1;rounded=0;" parent="1" source="XoZBVnsjFnfJr2ByRYeR-27" target="XoZBVnsjFnfJr2ByRYeR-53" edge="1">
          <mxGeometry width="50" height="50" relative="1" as="geometry">
            <mxPoint x="607" y="230" as="sourcePoint" />
            <mxPoint x="562" y="254" as="targetPoint" />
          </mxGeometry>
        </mxCell>
        <mxCell id="XoZBVnsjFnfJr2ByRYeR-78" value="" style="endArrow=none;html=1;rounded=0;" parent="1" source="XoZBVnsjFnfJr2ByRYeR-27" target="XoZBVnsjFnfJr2ByRYeR-52" edge="1">
          <mxGeometry width="50" height="50" relative="1" as="geometry">
            <mxPoint x="645" y="230" as="sourcePoint" />
            <mxPoint x="645" y="250" as="targetPoint" />
          </mxGeometry>
        </mxCell>
        <mxCell id="XoZBVnsjFnfJr2ByRYeR-80" value="id" style="ellipse;whiteSpace=wrap;html=1;" parent="1" vertex="1">
          <mxGeometry x="494" y="130" width="80" height="30" as="geometry" />
        </mxCell>
        <mxCell id="XoZBVnsjFnfJr2ByRYeR-81" value="user_id" style="ellipse;whiteSpace=wrap;html=1;" parent="1" vertex="1">
          <mxGeometry x="595" y="97.5" width="80" height="30" as="geometry" />
        </mxCell>
        <mxCell id="XoZBVnsjFnfJr2ByRYeR-82" value="custom_url" style="ellipse;whiteSpace=wrap;html=1;" parent="1" vertex="1">
          <mxGeometry x="705" y="130" width="80" height="30" as="geometry" />
        </mxCell>
        <mxCell id="XoZBVnsjFnfJr2ByRYeR-83" value="page_content" style="ellipse;whiteSpace=wrap;html=1;" parent="1" vertex="1">
          <mxGeometry x="725" y="180" width="85" height="35" as="geometry" />
        </mxCell>
        <mxCell id="XoZBVnsjFnfJr2ByRYeR-84" value="" style="endArrow=none;html=1;rounded=0;" parent="1" source="XoZBVnsjFnfJr2ByRYeR-27" target="XoZBVnsjFnfJr2ByRYeR-80" edge="1">
          <mxGeometry width="50" height="50" relative="1" as="geometry">
            <mxPoint x="607" y="230" as="sourcePoint" />
            <mxPoint x="562" y="254" as="targetPoint" />
          </mxGeometry>
        </mxCell>
        <mxCell id="XoZBVnsjFnfJr2ByRYeR-85" value="" style="endArrow=none;html=1;rounded=0;" parent="1" source="XoZBVnsjFnfJr2ByRYeR-27" target="XoZBVnsjFnfJr2ByRYeR-81" edge="1">
          <mxGeometry width="50" height="50" relative="1" as="geometry">
            <mxPoint x="608" y="190" as="sourcePoint" />
            <mxPoint x="567" y="167" as="targetPoint" />
          </mxGeometry>
        </mxCell>
        <mxCell id="XoZBVnsjFnfJr2ByRYeR-86" value="" style="endArrow=none;html=1;rounded=0;" parent="1" source="XoZBVnsjFnfJr2ByRYeR-27" target="XoZBVnsjFnfJr2ByRYeR-82" edge="1">
          <mxGeometry width="50" height="50" relative="1" as="geometry">
            <mxPoint x="639" y="190" as="sourcePoint" />
            <mxPoint x="624" y="137" as="targetPoint" />
          </mxGeometry>
        </mxCell>
        <mxCell id="XoZBVnsjFnfJr2ByRYeR-87" value="" style="endArrow=none;html=1;rounded=0;" parent="1" source="XoZBVnsjFnfJr2ByRYeR-27" target="XoZBVnsjFnfJr2ByRYeR-83" edge="1">
          <mxGeometry width="50" height="50" relative="1" as="geometry">
            <mxPoint x="666" y="198" as="sourcePoint" />
            <mxPoint x="705" y="154" as="targetPoint" />
          </mxGeometry>
        </mxCell>
        <mxCell id="XoZBVnsjFnfJr2ByRYeR-88" value="&lt;b&gt;1&lt;/b&gt;" style="text;html=1;align=center;verticalAlign=middle;whiteSpace=wrap;rounded=0;" parent="1" vertex="1">
          <mxGeometry x="190" y="170" width="30" height="30" as="geometry" />
        </mxCell>
        <mxCell id="XoZBVnsjFnfJr2ByRYeR-90" value="&lt;b&gt;N&lt;/b&gt;" style="text;html=1;align=center;verticalAlign=middle;whiteSpace=wrap;rounded=0;" parent="1" vertex="1">
          <mxGeometry x="550" y="175" width="30" height="30" as="geometry" />
        </mxCell>
        <mxCell id="XoZBVnsjFnfJr2ByRYeR-91" value="&lt;b&gt;1&lt;/b&gt;" style="text;html=1;align=center;verticalAlign=middle;whiteSpace=wrap;rounded=0;" parent="1" vertex="1">
          <mxGeometry x="190" y="205" width="30" height="30" as="geometry" />
        </mxCell>
        <mxCell id="XoZBVnsjFnfJr2ByRYeR-92" value="&lt;b&gt;N&lt;/b&gt;" style="text;html=1;align=center;verticalAlign=middle;whiteSpace=wrap;rounded=0;" parent="1" vertex="1">
          <mxGeometry x="570" y="402.5" width="30" height="30" as="geometry" />
        </mxCell>
        <mxCell id="XoZBVnsjFnfJr2ByRYeR-93" value="&lt;b&gt;1&lt;/b&gt;" style="text;html=1;align=center;verticalAlign=middle;whiteSpace=wrap;rounded=0;" parent="1" vertex="1">
          <mxGeometry x="110" y="210" width="30" height="30" as="geometry" />
        </mxCell>
        <mxCell id="XoZBVnsjFnfJr2ByRYeR-94" value="&lt;b&gt;N&lt;/b&gt;" style="text;html=1;align=center;verticalAlign=middle;whiteSpace=wrap;rounded=0;" parent="1" vertex="1">
          <mxGeometry x="110" y="403.75" width="30" height="30" as="geometry" />
        </mxCell>
        <mxCell id="XoZBVnsjFnfJr2ByRYeR-95" value="&lt;b&gt;1&lt;/b&gt;" style="text;html=1;align=center;verticalAlign=middle;whiteSpace=wrap;rounded=0;" parent="1" vertex="1">
          <mxGeometry x="190" y="452.5" width="30" height="30" as="geometry" />
        </mxCell>
        <mxCell id="XoZBVnsjFnfJr2ByRYeR-96" value="&lt;b&gt;N&lt;/b&gt;" style="text;html=1;align=center;verticalAlign=middle;whiteSpace=wrap;rounded=0;" parent="1" vertex="1">
          <mxGeometry x="550" y="452.5" width="30" height="30" as="geometry" />
        </mxCell>
        <mxCell id="8jwGkC7Xk14pmCewZu9K-1" value="&lt;div&gt;comment&lt;/div&gt;" style="rounded=0;whiteSpace=wrap;html=1;" vertex="1" parent="1">
          <mxGeometry x="580" y="647.5" width="110" height="40" as="geometry" />
        </mxCell>
        <mxCell id="8jwGkC7Xk14pmCewZu9K-2" value="created_at" style="ellipse;whiteSpace=wrap;html=1;" vertex="1" parent="1">
          <mxGeometry x="705" y="700" width="90" height="35" as="geometry" />
        </mxCell>
        <mxCell id="8jwGkC7Xk14pmCewZu9K-3" value="deleted_at" style="ellipse;whiteSpace=wrap;html=1;" vertex="1" parent="1">
          <mxGeometry x="705" y="610" width="90" height="35" as="geometry" />
        </mxCell>
        <mxCell id="8jwGkC7Xk14pmCewZu9K-4" value="updated_at" style="ellipse;whiteSpace=wrap;html=1;" vertex="1" parent="1">
          <mxGeometry x="780" y="652.5" width="90" height="35" as="geometry" />
        </mxCell>
        <mxCell id="8jwGkC7Xk14pmCewZu9K-5" value="memiliki" style="rhombus;whiteSpace=wrap;html=1;" vertex="1" parent="1">
          <mxGeometry x="592.5" y="517.5" width="85" height="80" as="geometry" />
        </mxCell>
        <mxCell id="8jwGkC7Xk14pmCewZu9K-7" value="" style="endArrow=none;html=1;rounded=0;" edge="1" parent="1" source="XoZBVnsjFnfJr2ByRYeR-30" target="8jwGkC7Xk14pmCewZu9K-5">
          <mxGeometry width="50" height="50" relative="1" as="geometry">
            <mxPoint x="430" y="670" as="sourcePoint" />
            <mxPoint x="480" y="620" as="targetPoint" />
          </mxGeometry>
        </mxCell>
        <mxCell id="8jwGkC7Xk14pmCewZu9K-8" value="" style="endArrow=none;html=1;rounded=0;" edge="1" parent="1" source="8jwGkC7Xk14pmCewZu9K-1" target="8jwGkC7Xk14pmCewZu9K-5">
          <mxGeometry width="50" height="50" relative="1" as="geometry">
            <mxPoint x="645" y="483" as="sourcePoint" />
            <mxPoint x="645" y="528" as="targetPoint" />
          </mxGeometry>
        </mxCell>
        <mxCell id="8jwGkC7Xk14pmCewZu9K-9" value="news_id" style="ellipse;whiteSpace=wrap;html=1;" vertex="1" parent="1">
          <mxGeometry x="420" y="652.5" width="80" height="30" as="geometry" />
        </mxCell>
        <mxCell id="8jwGkC7Xk14pmCewZu9K-10" value="id" style="ellipse;whiteSpace=wrap;html=1;" vertex="1" parent="1">
          <mxGeometry x="470" y="610" width="80" height="30" as="geometry" />
        </mxCell>
        <mxCell id="8jwGkC7Xk14pmCewZu9K-11" value="name" style="ellipse;whiteSpace=wrap;html=1;" vertex="1" parent="1">
          <mxGeometry x="470" y="700" width="80" height="30" as="geometry" />
        </mxCell>
        <mxCell id="8jwGkC7Xk14pmCewZu9K-13" value="comment" style="ellipse;whiteSpace=wrap;html=1;" vertex="1" parent="1">
          <mxGeometry x="595" y="740" width="80" height="30" as="geometry" />
        </mxCell>
        <mxCell id="8jwGkC7Xk14pmCewZu9K-14" value="" style="endArrow=none;html=1;rounded=0;" edge="1" parent="1" source="8jwGkC7Xk14pmCewZu9K-10" target="8jwGkC7Xk14pmCewZu9K-1">
          <mxGeometry width="50" height="50" relative="1" as="geometry">
            <mxPoint x="430" y="630" as="sourcePoint" />
            <mxPoint x="480" y="580" as="targetPoint" />
          </mxGeometry>
        </mxCell>
        <mxCell id="8jwGkC7Xk14pmCewZu9K-15" value="" style="endArrow=none;html=1;rounded=0;" edge="1" parent="1" source="8jwGkC7Xk14pmCewZu9K-9" target="8jwGkC7Xk14pmCewZu9K-1">
          <mxGeometry width="50" height="50" relative="1" as="geometry">
            <mxPoint x="550" y="645" as="sourcePoint" />
            <mxPoint x="590" y="659" as="targetPoint" />
          </mxGeometry>
        </mxCell>
        <mxCell id="8jwGkC7Xk14pmCewZu9K-16" value="" style="endArrow=none;html=1;rounded=0;" edge="1" parent="1" source="8jwGkC7Xk14pmCewZu9K-11" target="8jwGkC7Xk14pmCewZu9K-1">
          <mxGeometry width="50" height="50" relative="1" as="geometry">
            <mxPoint x="510" y="678" as="sourcePoint" />
            <mxPoint x="590" y="678" as="targetPoint" />
          </mxGeometry>
        </mxCell>
        <mxCell id="8jwGkC7Xk14pmCewZu9K-17" value="" style="endArrow=none;html=1;rounded=0;" edge="1" parent="1" source="8jwGkC7Xk14pmCewZu9K-13" target="8jwGkC7Xk14pmCewZu9K-1">
          <mxGeometry width="50" height="50" relative="1" as="geometry">
            <mxPoint x="548" y="714" as="sourcePoint" />
            <mxPoint x="592" y="698" as="targetPoint" />
          </mxGeometry>
        </mxCell>
        <mxCell id="8jwGkC7Xk14pmCewZu9K-18" value="" style="endArrow=none;html=1;rounded=0;" edge="1" parent="1" source="8jwGkC7Xk14pmCewZu9K-2" target="8jwGkC7Xk14pmCewZu9K-1">
          <mxGeometry width="50" height="50" relative="1" as="geometry">
            <mxPoint x="645" y="750" as="sourcePoint" />
            <mxPoint x="645" y="698" as="targetPoint" />
          </mxGeometry>
        </mxCell>
        <mxCell id="8jwGkC7Xk14pmCewZu9K-19" value="" style="endArrow=none;html=1;rounded=0;" edge="1" parent="1" source="8jwGkC7Xk14pmCewZu9K-4" target="8jwGkC7Xk14pmCewZu9K-1">
          <mxGeometry width="50" height="50" relative="1" as="geometry">
            <mxPoint x="730" y="714" as="sourcePoint" />
            <mxPoint x="691" y="698" as="targetPoint" />
          </mxGeometry>
        </mxCell>
        <mxCell id="8jwGkC7Xk14pmCewZu9K-20" value="" style="endArrow=none;html=1;rounded=0;" edge="1" parent="1" source="8jwGkC7Xk14pmCewZu9K-3" target="8jwGkC7Xk14pmCewZu9K-1">
          <mxGeometry width="50" height="50" relative="1" as="geometry">
            <mxPoint x="790" y="680" as="sourcePoint" />
            <mxPoint x="700" y="678" as="targetPoint" />
          </mxGeometry>
        </mxCell>
        <mxCell id="8jwGkC7Xk14pmCewZu9K-21" value="&lt;b&gt;1&lt;/b&gt;" style="text;html=1;align=center;verticalAlign=middle;whiteSpace=wrap;rounded=0;" vertex="1" parent="1">
          <mxGeometry x="630" y="472.5" width="30" height="30" as="geometry" />
        </mxCell>
        <mxCell id="8jwGkC7Xk14pmCewZu9K-22" value="&lt;b&gt;N&lt;/b&gt;" style="text;html=1;align=center;verticalAlign=middle;whiteSpace=wrap;rounded=0;" vertex="1" parent="1">
          <mxGeometry x="630" y="622.5" width="30" height="30" as="geometry" />
        </mxCell>
      </root>
    </mxGraphModel>
  </diagram>
</mxfile>
